<mxfile host="65bd71144e">
    <diagram id="CA0dMpzwE4d8slnkxBeP" name="diagramme_activiter">
        <mxGraphModel dx="774" dy="547" grid="1" gridSize="11" guides="1" tooltips="1" connect="1" arrows="1" fold="1" page="1" pageScale="1" pageWidth="827" pageHeight="1169" math="0" shadow="0">
            <root>
                <mxCell id="0"/>
                <mxCell id="1" parent="0"/>
                <mxCell id="3" value="Serveur" style="swimlane;whiteSpace=wrap;html=1;fillColor=#a20025;fontColor=#ffffff;strokeColor=#6F0000;gradientColor=#000000;swimlaneFillColor=default;" vertex="1" parent="1">
                    <mxGeometry x="430" y="132" width="362" height="484" as="geometry"/>
                </mxCell>
                <mxCell id="9" value="" style="shape=datastore;whiteSpace=wrap;html=1;" vertex="1" parent="3">
                    <mxGeometry x="10" y="427" width="45" height="51" as="geometry"/>
                </mxCell>
                <mxCell id="17" value="Create account Form&lt;br&gt;( in progress )" style="rounded=0;whiteSpace=wrap;html=1;" vertex="1" parent="3">
                    <mxGeometry x="87.00000000000011" y="53" width="120" height="60" as="geometry"/>
                </mxCell>
                <mxCell id="20" value="Save data" style="rounded=0;whiteSpace=wrap;html=1;" vertex="1" parent="3">
                    <mxGeometry x="87.00000000000011" y="176" width="120" height="60" as="geometry"/>
                </mxCell>
                <mxCell id="21" value="" style="endArrow=classic;html=1;exitX=1;exitY=0.5;exitDx=0;exitDy=0;" edge="1" parent="3">
                    <mxGeometry width="50" height="50" relative="1" as="geometry">
                        <mxPoint x="-16.000000000000114" y="205.65999999999985" as="sourcePoint"/>
                        <mxPoint x="87" y="206" as="targetPoint"/>
                        <Array as="points"/>
                    </mxGeometry>
                </mxCell>
                <mxCell id="31" value="Website Display" style="rounded=0;whiteSpace=wrap;html=1;" vertex="1" parent="3">
                    <mxGeometry x="87.00000000000011" y="418" width="120" height="60" as="geometry"/>
                </mxCell>
                <mxCell id="32" value="" style="edgeStyle=elbowEdgeStyle;elbow=vertical;endArrow=classic;html=1;curved=0;rounded=0;endSize=8;startSize=8;exitX=1;exitY=0.5;exitDx=0;exitDy=0;entryX=1;entryY=0.5;entryDx=0;entryDy=0;" edge="1" parent="3" source="20" target="31">
                    <mxGeometry width="50" height="50" relative="1" as="geometry">
                        <mxPoint x="321.0000000000002" y="236" as="sourcePoint"/>
                        <mxPoint x="252" y="363" as="targetPoint"/>
                        <Array as="points">
                            <mxPoint x="241" y="206"/>
                            <mxPoint x="263" y="209"/>
                            <mxPoint x="153" y="264"/>
                        </Array>
                    </mxGeometry>
                </mxCell>
                <mxCell id="33" value="Valid ?" style="rhombus;whiteSpace=wrap;html=1;fontSize=11;" vertex="1" parent="3">
                    <mxGeometry x="98" y="302" width="80" height="80" as="geometry"/>
                </mxCell>
                <mxCell id="43" value="" style="endArrow=classic;html=1;entryX=0;entryY=0.5;entryDx=0;entryDy=0;" edge="1" parent="3" target="25">
                    <mxGeometry relative="1" as="geometry">
                        <mxPoint x="98.00000000000023" y="341.65193548387094" as="sourcePoint"/>
                        <mxPoint x="-121" y="342.16999999999996" as="targetPoint"/>
                        <Array as="points">
                            <mxPoint x="-265" y="342"/>
                            <mxPoint x="-265" y="272"/>
                        </Array>
                    </mxGeometry>
                </mxCell>
                <mxCell id="44" value="No" style="edgeLabel;resizable=0;html=1;align=center;verticalAlign=middle;" connectable="0" vertex="1" parent="43">
                    <mxGeometry relative="1" as="geometry"/>
                </mxCell>
                <mxCell id="45" value="" style="endArrow=classic;html=1;" edge="1" parent="3">
                    <mxGeometry relative="1" as="geometry">
                        <mxPoint x="137.65999999999997" y="382" as="sourcePoint"/>
                        <mxPoint x="138" y="418" as="targetPoint"/>
                    </mxGeometry>
                </mxCell>
                <mxCell id="46" value="Yes" style="edgeLabel;resizable=0;html=1;align=center;verticalAlign=middle;fontSize=11;" connectable="0" vertex="1" parent="45">
                    <mxGeometry relative="1" as="geometry"/>
                </mxCell>
                <mxCell id="2" value="Client" style="swimlane;whiteSpace=wrap;html=1;fillColor=#a20025;fontColor=#ffffff;strokeColor=#6F0000;gradientColor=#000000;swimlaneFillColor=default;" vertex="1" parent="1">
                    <mxGeometry x="88" y="132" width="342" height="484" as="geometry"/>
                </mxCell>
                <mxCell id="4" value="" style="shape=umlActor;verticalLabelPosition=bottom;verticalAlign=top;html=1;outlineConnect=0;" vertex="1" parent="2">
                    <mxGeometry x="35.5" width="30" height="55" as="geometry"/>
                </mxCell>
                <mxCell id="11" value="Website Access" style="ellipse;whiteSpace=wrap;html=1;" vertex="1" parent="2">
                    <mxGeometry x="12" y="55" width="77" height="58" as="geometry"/>
                </mxCell>
                <mxCell id="12" value="" style="endArrow=classic;html=1;exitX=1;exitY=0.5;exitDx=0;exitDy=0;" edge="1" parent="2" source="11" target="13">
                    <mxGeometry width="50" height="50" relative="1" as="geometry">
                        <mxPoint x="99" y="61" as="sourcePoint"/>
                        <mxPoint x="149" y="11" as="targetPoint"/>
                    </mxGeometry>
                </mxCell>
                <mxCell id="13" value="Have an account ?" style="rhombus;whiteSpace=wrap;html=1;" vertex="1" parent="2">
                    <mxGeometry x="132" y="44" width="78" height="80" as="geometry"/>
                </mxCell>
                <mxCell id="15" value="" style="endArrow=classic;html=1;" edge="1" parent="2" target="17">
                    <mxGeometry relative="1" as="geometry">
                        <mxPoint x="210" y="83.66" as="sourcePoint"/>
                        <mxPoint x="385" y="84" as="targetPoint"/>
                    </mxGeometry>
                </mxCell>
                <mxCell id="16" value="No" style="edgeLabel;resizable=0;html=1;align=center;verticalAlign=middle;" connectable="0" vertex="1" parent="15">
                    <mxGeometry relative="1" as="geometry"/>
                </mxCell>
                <mxCell id="19" value="Enter email, password&lt;span style=&quot;color: rgba(0, 0, 0, 0); font-family: monospace; font-size: 0px; text-align: start;&quot;&gt;%3CmxGraphModel%3E%3Croot%3E%3CmxCell%20id%3D%220%22%2F%3E%3CmxCell%20id%3D%221%22%20parent%3D%220%22%2F%3E%3CmxCell%20id%3D%222%22%20value%3D%22Create%20account%20Form%22%20style%3D%22rounded%3D0%3BwhiteSpace%3Dwrap%3Bhtml%3D1%3B%22%20vertex%3D%221%22%20parent%3D%221%22%3E%3CmxGeometry%20x%3D%22517.0000000000001%22%20y%3D%22185%22%20width%3D%22120%22%20height%3D%2260%22%20as%3D%22geometry%22%2F%3E%3C%2FmxCell%3E%3C%2Froot%3E%3C%2FmxGraphModel%3E&lt;/span&gt;" style="rounded=0;whiteSpace=wrap;html=1;" vertex="1" parent="2">
                    <mxGeometry x="206.0000000000001" y="176" width="120" height="60" as="geometry"/>
                </mxCell>
                <mxCell id="23" value="" style="endArrow=classic;html=1;" edge="1" parent="2">
                    <mxGeometry relative="1" as="geometry">
                        <mxPoint x="170.66" y="123.99999999999999" as="sourcePoint"/>
                        <mxPoint x="170.66" y="241.48" as="targetPoint"/>
                    </mxGeometry>
                </mxCell>
                <mxCell id="24" value="Yes" style="edgeLabel;resizable=0;html=1;align=center;verticalAlign=middle;fontSize=11;" connectable="0" vertex="1" parent="23">
                    <mxGeometry relative="1" as="geometry"/>
                </mxCell>
                <mxCell id="25" value="Enter email and password&lt;span style=&quot;color: rgba(0, 0, 0, 0); font-family: monospace; font-size: 0px; text-align: start;&quot;&gt;%3CmxGraphModel%3E%3Croot%3E%3CmxCell%20id%3D%220%22%2F%3E%3CmxCell%20id%3D%221%22%20parent%3D%220%22%2F%3E%3CmxCell%20id%3D%222%22%20value%3D%22Create%20account%20Form%22%20style%3D%22rounded%3D0%3BwhiteSpace%3Dwrap%3Bhtml%3D1%3B%22%20vertex%3D%221%22%20parent%3D%221%22%3E%3CmxGeometry%20x%3D%22517.0000000000001%22%20y%3D%22185%22%20width%3D%22120%22%20height%3D%2260%22%20as%3D%22geometry%22%2F%3E%3C%2FmxCell%3E%3C%2Froot%3E%3C%2FmxGraphModel%3E&lt;/span&gt;" style="rounded=0;whiteSpace=wrap;html=1;" vertex="1" parent="2">
                    <mxGeometry x="111.00000000000011" y="242" width="120" height="60" as="geometry"/>
                </mxCell>
                <mxCell id="18" value="" style="edgeStyle=elbowEdgeStyle;elbow=vertical;endArrow=classic;html=1;curved=0;rounded=0;endSize=8;startSize=8;exitX=0.5;exitY=1;exitDx=0;exitDy=0;entryX=0.5;entryY=0;entryDx=0;entryDy=0;" edge="1" parent="1" source="17" target="19">
                    <mxGeometry width="50" height="50" relative="1" as="geometry">
                        <mxPoint x="517" y="297" as="sourcePoint"/>
                        <mxPoint x="374" y="308" as="targetPoint"/>
                    </mxGeometry>
                </mxCell>
                <mxCell id="27" value="" style="edgeStyle=segmentEdgeStyle;endArrow=classic;html=1;curved=0;rounded=0;endSize=8;startSize=8;fontSize=11;exitX=0.5;exitY=1;exitDx=0;exitDy=0;entryX=0.5;entryY=0;entryDx=0;entryDy=0;" edge="1" parent="1" source="25" target="33">
                    <mxGeometry width="50" height="50" relative="1" as="geometry">
                        <mxPoint x="220" y="495" as="sourcePoint"/>
                        <mxPoint x="528" y="473" as="targetPoint"/>
                        <Array as="points">
                            <mxPoint x="259" y="451"/>
                            <mxPoint x="341" y="451"/>
                            <mxPoint x="341" y="407"/>
                            <mxPoint x="568" y="407"/>
                        </Array>
                    </mxGeometry>
                </mxCell>
            </root>
        </mxGraphModel>
    </diagram>
</mxfile>